<svg width="64" height="64" viewBox="0 0 64 64" xmlns="http://www.w3.org/2000/svg">
  <!-- Background is transparent -->
  
  <!-- Egg outline - centered in 64x64 grid -->
  <!-- Using pixel-perfect coordinates for sprite editor compatibility -->
  
  <!-- Top of egg (narrower) -->
  <rect x="31" y="12" width="2" height="1" fill="#000000" opacity="0.8"/>
  <rect x="29" y="13" width="6" height="1" fill="#000000" opacity="0.8"/>
  <rect x="27" y="14" width="10" height="1" fill="#000000" opacity="0.8"/>
  <rect x="25" y="15" width="14" height="1" fill="#000000" opacity="0.8"/>
  <rect x="23" y="16" width="18" height="1" fill="#000000" opacity="0.8"/>
  <rect x="21" y="17" width="22" height="1" fill="#000000" opacity="0.8"/>
  <rect x="19" y="18" width="26" height="1" fill="#000000" opacity="0.8"/>
  <rect x="17" y="19" width="30" height="1" fill="#000000" opacity="0.8"/>
  <rect x="15" y="20" width="34" height="1" fill="#000000" opacity="0.8"/>
  
  <!-- Middle of egg (widest) -->
  <rect x="13" y="21" width="38" height="1" fill="#000000" opacity="0.8"/>
  <rect x="11" y="22" width="42" height="1" fill="#000000" opacity="0.8"/>
  <rect x="9" y="23" width="46" height="1" fill="#000000" opacity="0.8"/>
  <rect x="7" y="24" width="50" height="1" fill="#000000" opacity="0.8"/>
  <rect x="6" y="25" width="52" height="1" fill="#000000" opacity="0.8"/>
  <rect x="5" y="26" width="54" height="1" fill="#000000" opacity="0.8"/>
  <rect x="4" y="27" width="56" height="1" fill="#000000" opacity="0.8"/>
  <rect x="4" y="28" width="56" height="1" fill="#000000" opacity="0.8"/>
  <rect x="4" y="29" width="56" height="1" fill="#000000" opacity="0.8"/>
  <rect x="4" y="30" width="56" height="1" fill="#000000" opacity="0.8"/>
  <rect x="4" y="31" width="56" height="1" fill="#000000" opacity="0.8"/>
  <rect x="4" y="32" width="56" height="1" fill="#000000" opacity="0.8"/>
  <rect x="5" y="33" width="54" height="1" fill="#000000" opacity="0.8"/>
  <rect x="6" y="34" width="52" height="1" fill="#000000" opacity="0.8"/>
  <rect x="7" y="35" width="50" height="1" fill="#000000" opacity="0.8"/>
  <rect x="9" y="36" width="46" height="1" fill="#000000" opacity="0.8"/>
  <rect x="11" y="37" width="42" height="1" fill="#000000" opacity="0.8"/>
  <rect x="13" y="38" width="38" height="1" fill="#000000" opacity="0.8"/>
  
  <!-- Bottom of egg (narrower) -->
  <rect x="15" y="39" width="34" height="1" fill="#000000" opacity="0.8"/>
  <rect x="17" y="40" width="30" height="1" fill="#000000" opacity="0.8"/>
  <rect x="19" y="41" width="26" height="1" fill="#000000" opacity="0.8"/>
  <rect x="21" y="42" width="22" height="1" fill="#000000" opacity="0.8"/>
  <rect x="23" y="43" width="18" height="1" fill="#000000" opacity="0.8"/>
  <rect x="25" y="44" width="14" height="1" fill="#000000" opacity="0.8"/>
  <rect x="27" y="45" width="10" height="1" fill="#000000" opacity="0.8"/>
  <rect x="29" y="46" width="6" height="1" fill="#000000" opacity="0.8"/>
  <rect x="31" y="47" width="2" height="1" fill="#000000" opacity="0.8"/>
</svg>
