<svg width="256" height="256" viewBox="0 0 256 256" xmlns="http://www.w3.org/2000/svg">
  <!-- Background is transparent -->
  
  <!-- Egg outline - centered in 256x256 grid -->
  <!-- Using pixel-perfect coordinates for sprite editor compatibility -->
  
  <!-- Top of egg (narrower) -->
  <rect x="127" y="48" width="2" height="1" fill="#000000" opacity="0.8"/>
  <rect x="123" y="49" width="10" height="1" fill="#000000" opacity="0.8"/>
  <rect x="119" y="50" width="18" height="1" fill="#000000" opacity="0.8"/>
  <rect x="115" y="51" width="26" height="1" fill="#000000" opacity="0.8"/>
  <rect x="111" y="52" width="34" height="1" fill="#000000" opacity="0.8"/>
  <rect x="107" y="53" width="42" height="1" fill="#000000" opacity="0.8"/>
  <rect x="103" y="54" width="50" height="1" fill="#000000" opacity="0.8"/>
  <rect x="99" y="55" width="58" height="1" fill="#000000" opacity="0.8"/>
  <rect x="95" y="56" width="66" height="1" fill="#000000" opacity="0.8"/>
  <rect x="91" y="57" width="74" height="1" fill="#000000" opacity="0.8"/>
  <rect x="87" y="58" width="82" height="1" fill="#000000" opacity="0.8"/>
  <rect x="83" y="59" width="90" height="1" fill="#000000" opacity="0.8"/>
  <rect x="79" y="60" width="98" height="1" fill="#000000" opacity="0.8"/>
  <rect x="75" y="61" width="106" height="1" fill="#000000" opacity="0.8"/>
  <rect x="71" y="62" width="114" height="1" fill="#000000" opacity="0.8"/>
  <rect x="67" y="63" width="122" height="1" fill="#000000" opacity="0.8"/>
  <rect x="63" y="64" width="130" height="1" fill="#000000" opacity="0.8"/>
  <rect x="59" y="65" width="138" height="1" fill="#000000" opacity="0.8"/>
  <rect x="55" y="66" width="146" height="1" fill="#000000" opacity="0.8"/>
  <rect x="51" y="67" width="154" height="1" fill="#000000" opacity="0.8"/>
  <rect x="47" y="68" width="162" height="1" fill="#000000" opacity="0.8"/>
  <rect x="43" y="69" width="170" height="1" fill="#000000" opacity="0.8"/>
  <rect x="39" y="70" width="178" height="1" fill="#000000" opacity="0.8"/>
  <rect x="35" y="71" width="186" height="1" fill="#000000" opacity="0.8"/>
  <rect x="31" y="72" width="194" height="1" fill="#000000" opacity="0.8"/>
  <rect x="27" y="73" width="202" height="1" fill="#000000" opacity="0.8"/>
  <rect x="23" y="74" width="210" height="1" fill="#000000" opacity="0.8"/>
  <rect x="19" y="75" width="218" height="1" fill="#000000" opacity="0.8"/>
  <rect x="15" y="76" width="226" height="1" fill="#000000" opacity="0.8"/>
  <rect x="11" y="77" width="234" height="1" fill="#000000" opacity="0.8"/>
  <rect x="7" y="78" width="242" height="1" fill="#000000" opacity="0.8"/>
  <rect x="3" y="79" width="250" height="1" fill="#000000" opacity="0.8"/>
  <rect x="2" y="80" width="252" height="1" fill="#000000" opacity="0.8"/>
  <rect x="1" y="81" width="254" height="1" fill="#000000" opacity="0.8"/>
  <rect x="0" y="82" width="256" height="1" fill="#000000" opacity="0.8"/>
  
  <!-- Middle of egg (widest) - using groups for efficiency -->
  <g opacity="0.8">
    <!-- Rows 83-173 (91 rows) -->
    <rect x="0" y="83" width="256" height="91" fill="#000000"/>
  </g>
  
  <!-- Bottom of egg (narrower) -->
  <rect x="1" y="174" width="254" height="1" fill="#000000" opacity="0.8"/>
  <rect x="2" y="175" width="252" height="1" fill="#000000" opacity="0.8"/>
  <rect x="3" y="176" width="250" height="1" fill="#000000" opacity="0.8"/>
  <rect x="7" y="177" width="242" height="1" fill="#000000" opacity="0.8"/>
  <rect x="11" y="178" width="234" height="1" fill="#000000" opacity="0.8"/>
  <rect x="15" y="179" width="226" height="1" fill="#000000" opacity="0.8"/>
  <rect x="19" y="180" width="218" height="1" fill="#000000" opacity="0.8"/>
  <rect x="23" y="181" width="210" height="1" fill="#000000" opacity="0.8"/>
  <rect x="27" y="182" width="202" height="1" fill="#000000" opacity="0.8"/>
  <rect x="31" y="183" width="194" height="1" fill="#000000" opacity="0.8"/>
  <rect x="35" y="184" width="186" height="1" fill="#000000" opacity="0.8"/>
  <rect x="39" y="185" width="178" height="1" fill="#000000" opacity="0.8"/>
  <rect x="43" y="186" width="170" height="1" fill="#000000" opacity="0.8"/>
  <rect x="47" y="187" width="162" height="1" fill="#000000" opacity="0.8"/>
  <rect x="51" y="188" width="154" height="1" fill="#000000" opacity="0.8"/>
  <rect x="55" y="189" width="146" height="1" fill="#000000" opacity="0.8"/>
  <rect x="59" y="190" width="138" height="1" fill="#000000" opacity="0.8"/>
  <rect x="63" y="191" width="130" height="1" fill="#000000" opacity="0.8"/>
  <rect x="67" y="192" width="122" height="1" fill="#000000" opacity="0.8"/>
  <rect x="71" y="193" width="114" height="1" fill="#000000" opacity="0.8"/>
  <rect x="75" y="194" width="106" height="1" fill="#000000" opacity="0.8"/>
  <rect x="79" y="195" width="98" height="1" fill="#000000" opacity="0.8"/>
  <rect x="83" y="196" width="90" height="1" fill="#000000" opacity="0.8"/>
  <rect x="87" y="197" width="82" height="1" fill="#000000" opacity="0.8"/>
  <rect x="91" y="198" width="74" height="1" fill="#000000" opacity="0.8"/>
  <rect x="95" y="199" width="66" height="1" fill="#000000" opacity="0.8"/>
  <rect x="99" y="200" width="58" height="1" fill="#000000" opacity="0.8"/>
  <rect x="103" y="201" width="50" height="1" fill="#000000" opacity="0.8"/>
  <rect x="107" y="202" width="42" height="1" fill="#000000" opacity="0.8"/>
  <rect x="111" y="203" width="34" height="1" fill="#000000" opacity="0.8"/>
  <rect x="115" y="204" width="26" height="1" fill="#000000" opacity="0.8"/>
  <rect x="119" y="205" width="18" height="1" fill="#000000" opacity="0.8"/>
  <rect x="123" y="206" width="10" height="1" fill="#000000" opacity="0.8"/>
  <rect x="127" y="207" width="2" height="1" fill="#000000" opacity="0.8"/>
</svg>
