<svg width="128" height="128" viewBox="0 0 128 128" xmlns="http://www.w3.org/2000/svg">
  <!-- Background is transparent -->
  
  <!-- Egg outline - centered in 128x128 grid -->
  <!-- Using pixel-perfect coordinates for sprite editor compatibility -->
  
  <!-- Top of egg (narrower) -->
  <rect x="63" y="24" width="2" height="1" fill="#000000" opacity="0.8"/>
  <rect x="59" y="25" width="10" height="1" fill="#000000" opacity="0.8"/>
  <rect x="55" y="26" width="18" height="1" fill="#000000" opacity="0.8"/>
  <rect x="51" y="27" width="26" height="1" fill="#000000" opacity="0.8"/>
  <rect x="47" y="28" width="34" height="1" fill="#000000" opacity="0.8"/>
  <rect x="43" y="29" width="42" height="1" fill="#000000" opacity="0.8"/>
  <rect x="39" y="30" width="50" height="1" fill="#000000" opacity="0.8"/>
  <rect x="35" y="31" width="58" height="1" fill="#000000" opacity="0.8"/>
  <rect x="31" y="32" width="66" height="1" fill="#000000" opacity="0.8"/>
  <rect x="27" y="33" width="74" height="1" fill="#000000" opacity="0.8"/>
  <rect x="23" y="34" width="82" height="1" fill="#000000" opacity="0.8"/>
  <rect x="19" y="35" width="90" height="1" fill="#000000" opacity="0.8"/>
  <rect x="15" y="36" width="98" height="1" fill="#000000" opacity="0.8"/>
  
  <!-- Middle of egg (widest) -->
  <rect x="11" y="37" width="106" height="1" fill="#000000" opacity="0.8"/>
  <rect x="7" y="38" width="114" height="1" fill="#000000" opacity="0.8"/>
  <rect x="3" y="39" width="122" height="1" fill="#000000" opacity="0.8"/>
  <rect x="2" y="40" width="124" height="1" fill="#000000" opacity="0.8"/>
  <rect x="1" y="41" width="126" height="1" fill="#000000" opacity="0.8"/>
  <rect x="0" y="42" width="128" height="1" fill="#000000" opacity="0.8"/>
  <rect x="0" y="43" width="128" height="1" fill="#000000" opacity="0.8"/>
  <rect x="0" y="44" width="128" height="1" fill="#000000" opacity="0.8"/>
  <rect x="0" y="45" width="128" height="1" fill="#000000" opacity="0.8"/>
  <rect x="0" y="46" width="128" height="1" fill="#000000" opacity="0.8"/>
  <rect x="0" y="47" width="128" height="1" fill="#000000" opacity="0.8"/>
  <rect x="0" y="48" width="128" height="1" fill="#000000" opacity="0.8"/>
  <rect x="0" y="49" width="128" height="1" fill="#000000" opacity="0.8"/>
  <rect x="0" y="50" width="128" height="1" fill="#000000" opacity="0.8"/>
  <rect x="0" y="51" width="128" height="1" fill="#000000" opacity="0.8"/>
  <rect x="0" y="52" width="128" height="1" fill="#000000" opacity="0.8"/>
  <rect x="0" y="53" width="128" height="1" fill="#000000" opacity="0.8"/>
  <rect x="0" y="54" width="128" height="1" fill="#000000" opacity="0.8"/>
  <rect x="0" y="55" width="128" height="1" fill="#000000" opacity="0.8"/>
  <rect x="0" y="56" width="128" height="1" fill="#000000" opacity="0.8"/>
  <rect x="0" y="57" width="128" height="1" fill="#000000" opacity="0.8"/>
  <rect x="0" y="58" width="128" height="1" fill="#000000" opacity="0.8"/>
  <rect x="0" y="59" width="128" height="1" fill="#000000" opacity="0.8"/>
  <rect x="0" y="60" width="128" height="1" fill="#000000" opacity="0.8"/>
  <rect x="0" y="61" width="128" height="1" fill="#000000" opacity="0.8"/>
  <rect x="0" y="62" width="128" height="1" fill="#000000" opacity="0.8"/>
  <rect x="0" y="63" width="128" height="1" fill="#000000" opacity="0.8"/>
  <rect x="0" y="64" width="128" height="1" fill="#000000" opacity="0.8"/>
  <rect x="0" y="65" width="128" height="1" fill="#000000" opacity="0.8"/>
  <rect x="0" y="66" width="128" height="1" fill="#000000" opacity="0.8"/>
  <rect x="0" y="67" width="128" height="1" fill="#000000" opacity="0.8"/>
  <rect x="0" y="68" width="128" height="1" fill="#000000" opacity="0.8"/>
  <rect x="0" y="69" width="128" height="1" fill="#000000" opacity="0.8"/>
  <rect x="0" y="70" width="128" height="1" fill="#000000" opacity="0.8"/>
  <rect x="0" y="71" width="128" height="1" fill="#000000" opacity="0.8"/>
  <rect x="0" y="72" width="128" height="1" fill="#000000" opacity="0.8"/>
  <rect x="0" y="73" width="128" height="1" fill="#000000" opacity="0.8"/>
  <rect x="0" y="74" width="128" height="1" fill="#000000" opacity="0.8"/>
  <rect x="0" y="75" width="128" height="1" fill="#000000" opacity="0.8"/>
  <rect x="0" y="76" width="128" height="1" fill="#000000" opacity="0.8"/>
  <rect x="0" y="77" width="128" height="1" fill="#000000" opacity="0.8"/>
  <rect x="0" y="78" width="128" height="1" fill="#000000" opacity="0.8"/>
  <rect x="0" y="79" width="128" height="1" fill="#000000" opacity="0.8"/>
  <rect x="0" y="80" width="128" height="1" fill="#000000" opacity="0.8"/>
  <rect x="0" y="81" width="128" height="1" fill="#000000" opacity="0.8"/>
  <rect x="0" y="82" width="128" height="1" fill="#000000" opacity="0.8"/>
  <rect x="0" y="83" width="128" height="1" fill="#000000" opacity="0.8"/>
  <rect x="0" y="84" width="128" height="1" fill="#000000" opacity="0.8"/>
  <rect x="0" y="85" width="128" height="1" fill="#000000" opacity="0.8"/>
  <rect x="0" y="86" width="128" height="1" fill="#000000" opacity="0.8"/>
  <rect x="0" y="87" width="128" height="1" fill="#000000" opacity="0.8"/>
  <rect x="0" y="88" width="128" height="1" fill="#000000" opacity="0.8"/>
  <rect x="0" y="89" width="128" height="1" fill="#000000" opacity="0.8"/>
  <rect x="0" y="90" width="128" height="1" fill="#000000" opacity="0.8"/>
  <rect x="0" y="91" width="128" height="1" fill="#000000" opacity="0.8"/>
  <rect x="0" y="92" width="128" height="1" fill="#000000" opacity="0.8"/>
  <rect x="0" y="93" width="128" height="1" fill="#000000" opacity="0.8"/>
  <rect x="0" y="94" width="128" height="1" fill="#000000" opacity="0.8"/>
  <rect x="0" y="95" width="128" height="1" fill="#000000" opacity="0.8"/>
  <rect x="0" y="96" width="128" height="1" fill="#000000" opacity="0.8"/>
  <rect x="0" y="97" width="128" height="1" fill="#000000" opacity="0.8"/>
  <rect x="0" y="98" width="128" height="1" fill="#000000" opacity="0.8"/>
  <rect x="0" y="99" width="128" height="1" fill="#000000" opacity="0.8"/>
  <rect x="0" y="100" width="128" height="1" fill="#000000" opacity="0.8"/>
  <rect x="0" y="101" width="128" height="1" fill="#000000" opacity="0.8"/>
  <rect x="0" y="102" width="128" height="1" fill="#000000" opacity="0.8"/>
  <rect x="0" y="103" width="128" height="1" fill="#000000" opacity="0.8"/>
  <rect x="0" y="104" width="128" height="1" fill="#000000" opacity="0.8"/>
  <rect x="0" y="105" width="128" height="1" fill="#000000" opacity="0.8"/>
  <rect x="0" y="106" width="128" height="1" fill="#000000" opacity="0.8"/>
  <rect x="0" y="107" width="128" height="1" fill="#000000" opacity="0.8"/>
  <rect x="0" y="108" width="128" height="1" fill="#000000" opacity="0.8"/>
  <rect x="0" y="109" width="128" height="1" fill="#000000" opacity="0.8"/>
  <rect x="0" y="110" width="128" height="1" fill="#000000" opacity="0.8"/>
  <rect x="0" y="111" width="128" height="1" fill="#000000" opacity="0.8"/>
  <rect x="0" y="112" width="128" height="1" fill="#000000" opacity="0.8"/>
  <rect x="0" y="113" width="128" height="1" fill="#000000" opacity="0.8"/>
  <rect x="0" y="114" width="128" height="1" fill="#000000" opacity="0.8"/>
  <rect x="0" y="115" width="128" height="1" fill="#000000" opacity="0.8"/>
  <rect x="0" y="116" width="128" height="1" fill="#000000" opacity="0.8"/>
  <rect x="0" y="117" width="128" height="1" fill="#000000" opacity="0.8"/>
  <rect x="0" y="118" width="128" height="1" fill="#000000" opacity="0.8"/>
  <rect x="0" y="119" width="128" height="1" fill="#000000" opacity="0.8"/>
  <rect x="0" y="120" width="128" height="1" fill="#000000" opacity="0.8"/>
  <rect x="0" y="121" width="128" height="1" fill="#000000" opacity="0.8"/>
  <rect x="0" y="122" width="128" height="1" fill="#000000" opacity="0.8"/>
  <rect x="0" y="123" width="128" height="1" fill="#000000" opacity="0.8"/>
  <rect x="0" y="124" width="128" height="1" fill="#000000" opacity="0.8"/>
  <rect x="0" y="125" width="128" height="1" fill="#000000" opacity="0.8"/>
  <rect x="0" y="126" width="128" height="1" fill="#000000" opacity="0.8"/>
  <rect x="0" y="127" width="128" height="1" fill="#000000" opacity="0.8"/>
</svg>
