<svg width="32" height="32" viewBox="0 0 32 32" xmlns="http://www.w3.org/2000/svg">
  <!-- Background is transparent -->
  
  <!-- Egg outline - centered in 32x32 grid -->
  <!-- Using pixel-perfect coordinates for sprite editor compatibility -->
  
  <!-- Top of egg (narrower) -->
  <rect x="15" y="6" width="2" height="1" fill="#000000" opacity="0.8"/>
  <rect x="13" y="7" width="6" height="1" fill="#000000" opacity="0.8"/>
  <rect x="11" y="8" width="10" height="1" fill="#000000" opacity="0.8"/>
  <rect x="9" y="9" width="14" height="1" fill="#000000" opacity="0.8"/>
  <rect x="7" y="10" width="18" height="1" fill="#000000" opacity="0.8"/>
  
  <!-- Middle of egg (widest) -->
  <rect x="6" y="11" width="20" height="1" fill="#000000" opacity="0.8"/>
  <rect x="5" y="12" width="22" height="1" fill="#000000" opacity="0.8"/>
  <rect x="4" y="13" width="24" height="1" fill="#000000" opacity="0.8"/>
  <rect x="4" y="14" width="24" height="1" fill="#000000" opacity="0.8"/>
  <rect x="4" y="15" width="24" height="1" fill="#000000" opacity="0.8"/>
  <rect x="4" y="16" width="24" height="1" fill="#000000" opacity="0.8"/>
  <rect x="5" y="17" width="22" height="1" fill="#000000" opacity="0.8"/>
  <rect x="6" y="18" width="20" height="1" fill="#000000" opacity="0.8"/>
  
  <!-- Bottom of egg (narrower) -->
  <rect x="7" y="19" width="18" height="1" fill="#000000" opacity="0.8"/>
  <rect x="9" y="20" width="14" height="1" fill="#000000" opacity="0.8"/>
  <rect x="11" y="21" width="10" height="1" fill="#000000" opacity="0.8"/>
  <rect x="13" y="22" width="6" height="1" fill="#000000" opacity="0.8"/>
  <rect x="15" y="23" width="2" height="1" fill="#000000" opacity="0.8"/>
</svg>
